<svg width="512" height="512" viewBox="0 0 512 512" fill="none" xmlns="http://www.w3.org/2000/svg">
<path fill-rule="evenodd" clip-rule="evenodd" d="M245.637 59.0793C252.078 55.5054 259.908 55.5076 266.347 59.0852L447.681 159.829C454.453 163.592 458.654 170.731 458.654 178.478V333.521C458.654 341.269 454.453 348.407 447.681 352.17L266.354 452.91C259.911 456.49 252.076 456.49 245.633 452.911L64.2935 352.17C57.5208 348.407 53.3203 341.269 53.3203 333.521V178.341C53.3203 170.59 57.5253 163.448 64.3037 159.687L245.637 59.0793Z" stroke="#fff" stroke-width="21.3333" stroke-linecap="round"/>
<path d="M255.992 278.511V458.677" stroke="#fff" stroke-width="21.3333"/>
<path d="M255.985 278.507L53.3203 165.917" stroke="#fff" stroke-width="21.3333"/>
<path d="M458.661 165.917L255.992 278.507" stroke="#fff" stroke-width="21.3333"/>
</svg>
